<svg width="80" height="60" viewBox="0 0 80 60" fill="none" xmlns="http://www.w3.org/2000/svg">
<path d="M36.0583 44.6822H46.1646L52 51H32.0834C30.0199 50.5017 29.5604 50.3475 29.5886 50.3326C26.4171 49.7987 22.4846 46.3729 21.6389 45.661C20.7931 44.9492 18.8903 42.9025 17.2834 39.8326C15.9979 37.3767 15.2255 33.7076 15 32.1801C15 31.0678 15.0254 28.4695 15.1269 26.9746C15.2283 25.4797 15.8457 23.4449 16.1417 22.6144C16.7337 20.6123 18.9579 15.8606 23.1189 12.8708C27.2798 9.88093 31.4491 9.04449 33.0137 9H51.3657L45.6571 15.2733L34.4514 15.4068C31.1109 14.9174 26.84 19.2775 26.5017 19.589C26.1634 19.9004 23.0343 24.1716 22.7806 27.6419C22.5269 31.1123 23.0343 32.5805 23.1612 33.8708C23.288 35.161 25.8252 39.1652 26.248 39.8326C26.6709 40.5 29.504 42.6801 30.4343 43.125C31.3646 43.5699 33.2252 44.0148 34.0286 44.2818C34.6713 44.4953 35.6495 44.6377 36.0583 44.6822Z" fill="white" stroke="white"/>
<path d="M65 15L52 30L65 45V15Z" fill="#FF6F00"/>
</svg>
